<svg viewBox="0 0 437 254" xmlns="http://www.w3.org/2000/svg" xmlns:xlink="http://www.w3.org/1999/xlink" width="437.000000" height="254.000000" fill="none" customFrame="#000000">
	<g id="Группа 6">
		<g id="Группа 3">
			<g id="Группа 2">
				<rect id="Прямоугольник 3" width="34.000000" height="14.000000" x="50.000000" y="26.000000" rx="5.000000" fill="rgb(1,1,1)" />
				<rect id="Прямоугольник 3" width="30.000000" height="10.000000" x="52.000000" y="28.000000" rx="3.000000" stroke="rgb(217,161,59)" stroke-width="4.000000" />
				<g id="Группа 1">
					<rect id="Прямоугольник 2" width="125.000000" height="50.000000" x="154.000000" y="0.000000" rx="9.000000" fill="rgb(1,1,1)" />
					<rect id="Прямоугольник 2" width="120.000000" height="45.000000" x="156.500000" y="2.500000" rx="6.500000" stroke="rgb(217,161,59)" stroke-width="5.000000" />
					<rect id="Прямоугольник 1" width="437.000000" height="218.000000" x="0.000000" y="36.000000" rx="35.000000" fill="rgb(1,1,1)" />
					<rect id="Прямоугольник 1" width="428.000000" height="209.000000" x="4.500000" y="40.500000" rx="30.500000" stroke="rgb(217,161,59)" stroke-width="9.000000" />
					<ellipse id="Эллипс 1" rx="82.000000" ry="72.500000" cx="215" cy="155.5" fill="rgb(1,1,1)" />
					<ellipse id="Эллипс 1" rx="79.000000" ry="69.500000" cx="215" cy="155.5" stroke="rgb(217,161,59)" stroke-width="6.000000" />
					<ellipse id="Эллипс 4" rx="61.000000" ry="59.000000" cx="215" cy="155" fill="rgb(1,1,1)" />
					<ellipse id="Эллипс 4" rx="59.000000" ry="57.000000" cx="215" cy="155" stroke="rgb(217,161,59)" stroke-width="4.000000" />
					<path id="Эллипс 5" d="M171 154C171 141.021 176.037 129.271 184.18 120.766C192.324 112.261 204.574 107 217 107C229.603 107 267.331 79.7805 275.5 88.5C283.44 96.9749 262 141.206 262 154C262 179.957 240.853 201 216 201C191.147 201 171 179.957 171 154Z" fill="rgb(1,1,1)" fill-rule="evenodd" />
					<path id="Эллипс 5" d="M184.18 120.766C176.037 129.271 171 141.021 171 154C171 179.957 191.147 201 216 201C240.853 201 262 179.957 262 154C262 149.063 265.193 139.443 268.658 129.004C274.173 112.392 280.376 93.7043 275.5 88.5C270.682 83.3571 255.58 90.717 241.416 97.62C231.566 102.42 222.169 107 217 107C204.574 107 192.324 112.261 184.18 120.766ZM223.14 197.38Q219.625 198 216 198Q211.651 198 207.495 197.105Q203.507 196.246 199.696 194.562Q196.99 193.367 194.505 191.816Q190.074 189.052 186.347 185.159Q183.887 182.59 181.896 179.699Q179.167 175.737 177.317 171.168Q176.017 167.957 175.226 164.625Q174 159.458 174 154Q174 148.542 175.226 143.374Q176.017 140.042 177.317 136.832Q179.167 132.264 181.896 128.301Q183.887 125.41 186.347 122.841Q187.133 122.02 187.963 121.248Q193.174 116.403 200.151 113.457Q205.602 111.156 211.261 110.387Q214.104 110 217 110Q221.048 110 228.598 106.883Q232.91 105.103 242.73 100.317Q249.834 96.8547 253.279 95.2914Q258.969 92.7098 262.916 91.3873Q267.435 89.8731 270.23 89.783Q272.522 89.7091 273.311 90.5511Q274.243 91.546 274.264 94.7079Q274.286 98.1994 273.046 103.828Q271.988 108.63 269.872 115.518Q268.601 119.655 265.811 128.059Q262.394 138.354 261.144 142.744Q259 150.278 259 154Q259 158.673 258.054 163.145Q257.191 167.22 255.543 171.129Q253.985 174.825 251.83 178.133Q249.39 181.879 246.184 185.127Q242.467 188.894 238.096 191.611Q235.41 193.281 232.477 194.555Q227.909 196.538 223.14 197.38Z" fill="rgb(217,161,59)" fill-rule="evenodd" />
				</g>
				<circle id="Эллипс 6" cx="218" cy="154" r="29" fill="rgb(217,161,59)" />
				<circle id="Эллипс 6" cx="218" cy="154" r="28" stroke="rgb(217,161,59)" stroke-width="2.000000" />
				<circle id="Эллипс 7" cx="64" cy="68" r="10" fill="rgb(217,161,59)" />
				<circle id="Эллипс 7" cx="64" cy="68" r="9.5" stroke="rgb(217,161,59)" stroke-width="1.000000" />
				<path id="Линия 1" d="M0 5.95378L75.6868 0" stroke="rgb(217,161,59)" stroke-width="3.000000" transform="matrix(0.959365,0.282166,-0.282166,0.959365,37.1801,81.2882)" />
				<path id="Линия 2" d="M0 5.95378L75.6868 0" stroke="rgb(217,161,59)" stroke-width="3.000000" transform="matrix(-0.959366,0.282166,0.282166,0.959366,410.611,81)" />
				<rect id="Прямоугольник 4" width="50.000000" height="10.000000" x="346.000000" y="63.000000" rx="4.000000" fill="rgb(217,161,59)" />
				<rect id="Прямоугольник 4" width="49.000000" height="9.000000" x="346.500000" y="63.500000" rx="3.500000" stroke="rgb(217,161,59)" stroke-width="1.000000" />
			</g>
			<g id="Группа 7">
				<path id="Звезда 1" d="M251.668 84.6927L258.355 102.862L279.99 102.863L262.487 114.092L273.639 132.262L251.668 121.033L234.164 132.262L240.849 114.092L223.346 97.8753L244.982 102.862L251.668 84.6927Z" fill="rgb(255,255,255)" fill-rule="evenodd" />
				<path id="Звезда 4" d="M22.656 0L33.3977 50.8346L54.0377 50.8353L37.34 62.6645L39.4925 77.579L27.0188 69.9759L3.15135 88.9728L16.6976 62.6645L0 50.8353L20.64 50.8346L22.656 0Z" fill="rgb(255,255,255)" fill-rule="evenodd" transform="matrix(0.741204,0.671279,-0.741204,0.671279,276.947,53)" />
			</g>
		</g>
	</g>
</svg>
